<svg id="Layer_1" xmlns="http://www.w3.org/2000/svg" viewBox="0 0 57.84 43.45"><style>.st0{fill:#f1eff4}.st1{fill:#132e48}.st2{fill:#1e0e5e}.st3{fill:#e5e1eb}.st4{fill:#1D0E5B}.st5{fill:#fdfdfd}.st6{fill:#251563}</style><g id="XMLID_218_"><g id="XMLID_291_"><path id="XMLID_217_" class="st0" d="M28.92 20.14l-8.72-5.03V5.04l8.72 5.03z"/><path id="XMLID_216_" class="st1" d="M28.24 18.97l-7.36-4.25v-8.5l7.36 4.24z"/><path id="XMLID_215_" class="st1" d="M28.24 18.97l-7.36-4.25v-8.5l7.36 4.24z"/><path id="XMLID_214_" class="st2" d="M28.24 18.97l-7.36-4.25v-8.5l7.36 4.24z"/><path id="XMLID_213_" class="st3" d="M37.64 15.1l-8.72 5.04V10.07l8.72-5.03z"/><path id="XMLID_212_" class="st4" d="M37 14.73l-7.43 4.29v-8.57l7.42-4.29z"/><path id="XMLID_211_" class="st5" d="M28.92 10.07L20.2 5.04 28.92 0l8.72 5.04z"/><path id="XMLID_210_" class="st6" d="M28.92 9.38l-7.53-4.34L28.92.69l7.53 4.35z"/></g><g id="XMLID_282_"><path id="XMLID_209_" class="st0" d="M39.02 25.97l-8.73-5.04V10.86l8.73 5.04z"/><path id="XMLID_208_" class="st1" d="M38.34 24.8l-7.37-4.26v-8.5l7.37 4.25z"/><path id="XMLID_207_" class="st1" d="M38.34 24.8l-7.37-4.26v-8.5l7.37 4.25z"/><path id="XMLID_206_" class="st2" d="M38.34 24.8l-7.37-4.26v-8.5l7.37 4.25z"/><path id="XMLID_205_" class="st3" d="M47.74 20.93l-8.72 5.04V15.9l8.72-5.04z"/><path id="XMLID_204_" class="st4" d="M47.09 20.56l-7.42 4.28v-8.57L47.09 12z"/><path id="XMLID_203_" class="st5" d="M39.02 15.9l-8.73-5.04 8.73-5.03 8.72 5.03z"/><path id="XMLID_202_" class="st6" d="M39.02 15.2l-7.53-4.34 7.53-4.34 7.52 4.34z"/></g><g id="XMLID_273_"><path id="XMLID_201_" class="st0" d="M49.12 31.8l-8.73-5.04V16.69l8.73 5.03z"/><path id="XMLID_200_" class="st1" d="M48.44 30.62l-7.37-4.25v-8.5l7.37 4.25z"/><path id="XMLID_199_" class="st1" d="M48.44 30.62l-7.37-4.25v-8.5l7.37 4.25z"/><path id="XMLID_198_" class="st2" d="M48.44 30.62l-7.37-4.25v-8.5l7.37 4.25z"/><path id="XMLID_197_" class="st3" d="M57.84 26.76L49.1 31.8V21.72l8.73-5.03z"/><path id="XMLID_196_" class="st4" d="M57.19 26.38l-7.43 4.29V22.1l7.43-4.29z"/><path id="XMLID_195_" class="st5" d="M49.12 21.72l-8.73-5.03 8.73-5.04 8.72 5.04z"/><path id="XMLID_194_" class="st6" d="M49.12 21.03l-7.53-4.34 7.52-4.35 7.53 4.35z"/></g><g id="XMLID_264_"><path id="XMLID_193_" class="st0" d="M18.82 25.97l-8.72-5.04V10.86l8.72 5.04z"/><path id="XMLID_192_" class="st1" d="M18.14 24.8l-7.36-4.26v-8.5l7.36 4.25z"/><path id="XMLID_191_" class="st1" d="M18.14 24.8l-7.36-4.26v-8.5l7.36 4.25z"/><path id="XMLID_190_" class="st2" d="M18.14 24.8l-7.36-4.26v-8.5l7.36 4.25z"/><path id="XMLID_189_" class="st3" d="M27.54 20.93l-8.72 5.04V15.9l8.72-5.04z"/><path id="XMLID_188_" class="st4" d="M26.9 20.56l-7.43 4.28v-8.57L26.89 12z"/><path id="XMLID_187_" class="st5" d="M18.82 15.9l-8.72-5.04 8.72-5.03 8.72 5.03z"/><path id="XMLID_186_" class="st6" d="M18.82 15.2l-7.53-4.34 7.53-4.34 7.53 4.34z"/></g><g id="XMLID_255_"><path id="XMLID_185_" class="st0" d="M28.92 31.8l-8.72-5.04V16.69l8.72 5.03z"/><path id="XMLID_184_" class="st1" d="M28.24 30.62l-7.36-4.25v-8.5l7.36 4.25z"/><path id="XMLID_183_" class="st1" d="M28.24 30.62l-7.36-4.25v-8.5l7.36 4.25z"/><path id="XMLID_182_" class="st2" d="M28.24 30.62l-7.36-4.25v-8.5l7.36 4.25z"/><path id="XMLID_181_" class="st3" d="M37.64 26.76l-8.72 5.04V21.72l8.72-5.03z"/><path id="XMLID_180_" class="st4" d="M37 26.38l-7.43 4.29V22.1l7.42-4.29z"/><path id="XMLID_179_" class="st5" d="M28.92 21.72L20.2 16.7l8.72-5.04 8.72 5.04z"/><path id="XMLID_178_" class="st6" d="M28.92 21.03l-7.53-4.34 7.53-4.35 7.53 4.35z"/></g><g id="XMLID_246_"><path id="XMLID_177_" class="st0" d="M39.02 37.62l-8.73-5.03V22.5l8.73 5.04z"/><path id="XMLID_176_" class="st1" d="M38.34 36.44l-7.37-4.25v-8.5l7.37 4.25z"/><path id="XMLID_175_" class="st1" d="M38.34 36.44l-7.37-4.25v-8.5l7.37 4.25z"/><path id="XMLID_174_" class="st2" d="M38.34 36.44l-7.37-4.25v-8.5l7.37 4.25z"/><path id="XMLID_173_" class="st3" d="M47.74 32.59l-8.72 5.03V27.55l8.72-5.04z"/><path id="XMLID_172_" class="st4" d="M47.09 32.21l-7.42 4.29v-8.58l7.42-4.28z"/><path id="XMLID_171_" class="st5" d="M39.02 27.55l-8.73-5.04 8.73-5.03 8.72 5.03z"/><path id="XMLID_170_" class="st6" d="M39.02 26.86l-7.53-4.35 7.53-4.34 7.52 4.34z"/></g><g id="XMLID_237_"><path id="XMLID_169_" class="st0" d="M8.72 31.8L0 26.76V16.69l8.72 5.03z"/><path id="XMLID_168_" class="st1" d="M8.04 30.62L.68 26.37v-8.5l7.36 4.25z"/><path id="XMLID_167_" class="st1" d="M8.04 30.62L.68 26.37v-8.5l7.36 4.25z"/><path id="XMLID_166_" class="st2" d="M8.04 30.62L.68 26.37v-8.5l7.36 4.25z"/><path id="XMLID_165_" class="st3" d="M17.44 26.76L8.72 31.8V21.72l8.72-5.03z"/><path id="XMLID_164_" class="st4" d="M16.8 26.38l-7.43 4.29V22.1l7.43-4.29z"/><path id="XMLID_163_" class="st5" d="M8.72 21.72L0 16.7l8.72-5.04 8.72 5.04z"/><path id="XMLID_162_" class="st6" d="M8.72 21.03L1.2 16.7l7.53-4.35 7.53 4.35z"/></g><g id="XMLID_228_"><path id="XMLID_161_" class="st0" d="M18.82 37.62l-8.72-5.03V22.5l8.72 5.04z"/><path id="XMLID_160_" class="st1" d="M18.14 36.44l-7.36-4.25v-8.5l7.36 4.25z"/><path id="XMLID_159_" class="st1" d="M18.14 36.44l-7.36-4.25v-8.5l7.36 4.25z"/><path id="XMLID_158_" class="st2" d="M18.14 36.44l-7.36-4.25v-8.5l7.36 4.25z"/><path id="XMLID_157_" class="st3" d="M27.54 32.59l-8.72 5.03V27.55l8.72-5.04z"/><path id="XMLID_156_" class="st4" d="M26.9 32.21l-7.43 4.29v-8.58l7.42-4.28z"/><path id="XMLID_155_" class="st5" d="M18.82 27.55L10.1 22.5l8.72-5.03 8.72 5.03z"/><path id="XMLID_154_" class="st6" d="M18.82 26.86l-7.53-4.35 7.53-4.34 7.53 4.34z"/></g><g id="XMLID_219_"><path id="XMLID_153_" class="st0" d="M28.92 43.45L20.2 38.4V28.34l8.72 5.04z"/><path id="XMLID_152_" class="st1" d="M28.24 42.27l-7.36-4.25v-8.5l7.36 4.25z"/><path id="XMLID_151_" class="st1" d="M28.24 42.27l-7.36-4.25v-8.5l7.36 4.25z"/><path id="XMLID_150_" class="st2" d="M28.24 42.27l-7.36-4.25v-8.5l7.36 4.25z"/><path id="XMLID_149_" class="st3" d="M37.64 38.41l-8.72 5.04V33.37l8.72-5.03z"/><path id="XMLID_148_" class="st4" d="M37 38.04l-7.43 4.28v-8.57l7.42-4.29z"/><path id="XMLID_147_" class="st5" d="M28.92 33.38l-8.72-5.04 8.72-5.04 8.72 5.04z"/><path id="XMLID_146_" class="st6" d="M28.92 32.69l-7.53-4.35 7.53-4.35 7.53 4.35z"/></g></g></svg>