<svg id="Layer_1" xmlns="http://www.w3.org/2000/svg" viewBox="-20 19.5 57.8 43.5"><style>.st0{fill:#f1eff4}.st1{fill:#00D4A4}.st2{fill:#00D4A4}.st3{fill:#e5e1eb}.st4{fill:#00CE9F}.st5{fill:#fdfdfd}.st6{fill:#0FD7A9}.st7{fill:#ff2f7a}</style><g id="XMLID_218_"><g id="XMLID_291_"><path id="XMLID_73_" class="st0" d="M8.9 39.7l-8.7-5V24.6l8.7 5v10.1z"/><path id="XMLID_72_" class="st1" d="M8.2 38.5L.8 34.3v-8.5L8.2 30v8.5z"/><path id="XMLID_71_" class="st1" d="M8.2 38.5L.8 34.3v-8.5L8.2 30v8.5z"/><path id="XMLID_70_" class="st2" d="M8.2 38.5L.8 34.3v-8.5L8.2 30v8.5z"/><path id="XMLID_69_" class="st3" d="M17.6 34.7l-8.7 5V29.6l8.7-5v10.1z"/><path id="XMLID_68_" class="st4" d="M17 34.3l-7.4 4.3V30l7.4-4.3v8.6z"/><path id="XMLID_67_" class="st5" d="M8.9 29.6l-8.7-5 8.7-5 8.7 5-8.7 5z"/><path id="XMLID_66_" class="st6" d="M8.9 28.9l-7.5-4.3 7.5-4.4 7.5 4.4-7.5 4.3z"/></g><g id="XMLID_282_"><path id="XMLID_65_" class="st0" d="M19 45.5l-8.7-5V30.4l8.7 5v10.1z"/><path id="XMLID_64_" class="st1" d="M18.3 44.3L11 40.1v-8.5l7.4 4.2v8.5z"/><path id="XMLID_63_" class="st1" d="M18.3 44.3L11 40.1v-8.5l7.4 4.2v8.5z"/><path id="XMLID_62_" class="st2" d="M18.3 44.3L11 40.1v-8.5l7.4 4.2v8.5z"/><path id="XMLID_61_" class="st3" d="M27.7 40.5l-8.7 5V35.4l8.7-5v10.1z"/><path id="XMLID_60_" class="st4" d="M27.1 40.1l-7.4 4.3v-8.6l7.4-4.3v8.6z"/><path id="XMLID_59_" class="st5" d="M19 35.4l-8.7-5 8.7-5 8.7 5-8.7 5z"/><path id="XMLID_58_" class="st6" d="M19 34.8l-7.5-4.3 7.5-4.3 7.5 4.3-7.5 4.3z"/></g><g id="XMLID_273_"><path id="XMLID_57_" class="st0" d="M29.1 51.3l-8.7-5V36.2l8.7 5v10.1z"/><path id="XMLID_56_" class="st1" d="M28.4 50.2L21 46v-8.5l7.4 4.2v8.5z"/><path id="XMLID_55_" class="st1" d="M28.4 50.2L21 46v-8.5l7.4 4.2v8.5z"/><path id="XMLID_54_" class="st2" d="M28.4 50.2L21 46v-8.5l7.4 4.2v8.5z"/><path id="XMLID_53_" class="st3" d="M37.8 46.3l-8.7 5v-10l8.7-5v10z"/><path id="XMLID_52_" class="st4" d="M37.2 45.9l-7.4 4.3v-8.6l7.4-4.3v8.6z"/><path id="XMLID_51_" class="st5" d="M29.1 41.3l-8.7-5 8.7-5 8.7 5-8.7 5z"/><path id="XMLID_50_" class="st6" d="M29.1 40.6l-7.5-4.3 7.5-4.3 7.5 4.3-7.5 4.3z"/></g><g id="XMLID_264_"><path id="XMLID_49_" class="st0" d="M-1.2 45.5l-8.7-5V30.4l8.7 5v10.1z"/><path id="XMLID_48_" class="st1" d="M-1.9 44.3L-9.3 40v-8.5l7.4 4.2v8.6z"/><path id="XMLID_47_" class="st1" d="M-1.9 44.3L-9.3 40v-8.5l7.4 4.2v8.6z"/><path id="XMLID_46_" class="st2" d="M-1.9 44.3L-9.3 40v-8.5l7.4 4.2v8.6z"/><path id="XMLID_45_" class="st3" d="M7.5 40.5l-8.7 5V35.4l8.7-5v10.1z"/><path id="XMLID_44_" class="st4" d="M6.9 40.1l-7.4 4.3v-8.6l7.4-4.3v8.6z"/><path id="XMLID_43_" class="st5" d="M-1.2 35.4l-8.7-5 8.7-5 8.7 5-8.7 5z"/><path id="XMLID_42_" class="st6" d="M-1.2 34.8l-7.5-4.3 7.5-4.3 7.5 4.3-7.5 4.3z"/></g><g id="XMLID_255_"><path id="XMLID_41_" class="st0" d="M8.9 51.3l-8.7-5V36.2l8.7 5v10.1z"/><path id="XMLID_40_" class="st1" d="M8.2 50.2L.8 46v-8.5l7.4 4.2v8.5z"/><path id="XMLID_39_" class="st1" d="M8.2 50.2L.8 46v-8.5l7.4 4.2v8.5z"/><path id="XMLID_38_" class="st2" d="M8.2 50.2L.8 46v-8.5l7.4 4.2v8.5z"/><path id="XMLID_37_" class="st3" d="M17.6 46.3l-8.7 5v-10l8.7-5v10z"/><path id="XMLID_36_" class="st4" d="M17 45.9l-7.4 4.3v-8.6l7.4-4.3v8.6z"/><path id="XMLID_35_" class="st5" d="M8.9 41.3l-8.7-5 8.7-5 8.7 5-8.7 5z"/><path id="XMLID_34_" class="st6" d="M8.9 40.6l-7.5-4.3L8.9 32l7.5 4.3-7.5 4.3z"/></g><g id="XMLID_246_"><path id="XMLID_33_" class="st0" d="M19 57.2l-8.7-5V42l8.7 5v10.2z"/><path id="XMLID_32_" class="st1" d="M18.3 56L11 51.7v-8.5l7.4 4.2V56z"/><path id="XMLID_31_" class="st1" d="M18.3 56L11 51.7v-8.5l7.4 4.2V56z"/><path id="XMLID_30_" class="st2" d="M18.3 56L11 51.7v-8.5l7.4 4.2V56z"/><path id="XMLID_29_" class="st3" d="M27.7 52.1l-8.7 5v-10l8.7-5v10z"/><path id="XMLID_28_" class="st4" d="M27.1 51.8L19.7 56v-8.6l7.4-4.3v8.7z"/><path id="XMLID_27_" class="st5" d="M19 47.1l-8.7-5 8.7-5 8.7 5-8.7 5z"/><path id="XMLID_26_" class="st6" d="M19 46.4L11.5 42l7.5-4.3 7.5 4.3-7.5 4.4z"/></g><g id="XMLID_237_"><path id="XMLID_25_" class="st0" d="M-11.3 51.3l-8.7-5V36.2l8.7 5v10.1z"/><path id="XMLID_24_" class="st7" d="M-12 50.2l-7.4-4.2v-8.5l7.4 4.2v8.5z"/><path id="XMLID_23_" class="st1" d="M-12 50.2l-7.4-4.2v-8.5l7.4 4.2v8.5z"/><path id="XMLID_22_" class="st2" d="M-12 50.2l-7.4-4.2v-8.5l7.4 4.2v8.5z"/><path id="XMLID_21_" class="st3" d="M-2.6 46.3l-8.7 5v-10l8.7-5v10z"/><path id="XMLID_20_" class="st4" d="M-3.2 45.9l-7.4 4.3v-8.6l7.4-4.3v8.6z"/><path id="XMLID_19_" class="st5" d="M-11.3 41.3l-8.7-5 8.7-5 8.7 5-8.7 5z"/><path id="XMLID_18_" class="st6" d="M-11.3 40.6l-7.5-4.3 7.5-4.4 7.5 4.4-7.5 4.3z"/></g><g id="XMLID_228_"><path id="XMLID_17_" class="st0" d="M-1.2 57.2l-8.7-5V42l8.7 5v10.2z"/><path id="XMLID_16_" class="st7" d="M-1.9 56l-7.4-4.2v-8.5l7.4 4.2V56z"/><path id="XMLID_15_" class="st1" d="M-1.9 56l-7.4-4.2v-8.5l7.4 4.2V56z"/><path id="XMLID_14_" class="st2" d="M-1.9 56l-7.4-4.2v-8.5l7.4 4.2V56z"/><path id="XMLID_13_" class="st3" d="M7.5 52.1l-8.7 5v-10l8.7-5v10z"/><path id="XMLID_12_" class="st4" d="M6.9 51.8L-.5 56v-8.6l7.4-4.3v8.7z"/><path id="XMLID_11_" class="st5" d="M-1.2 47.1l-8.7-5 8.7-5 8.7 5-8.7 5z"/><path id="XMLID_10_" class="st6" d="M-1.2 46.4L-8.7 42l7.5-4.3L6.3 42l-7.5 4.4z"/></g><g id="XMLID_219_"><path id="XMLID_9_" class="st0" d="M8.9 63L.2 58V47.9l8.7 5V63z"/><path id="XMLID_8_" class="st1" d="M8.2 61.8L.8 57.6v-8.5l7.4 4.2v8.5z"/><path id="XMLID_7_" class="st1" d="M8.2 61.8L.8 57.6v-8.5l7.4 4.2v8.5z"/><path id="XMLID_6_" class="st2" d="M8.2 61.8L.8 57.6v-8.5l7.4 4.2v8.5z"/><path id="XMLID_5_" class="st3" d="M17.6 58l-8.7 5V52.9l8.7-5V58z"/><path id="XMLID_4_" class="st4" d="M17 57.6l-7.4 4.3v-8.6L17 49v8.6z"/><path id="XMLID_3_" class="st5" d="M8.9 52.9l-8.7-5 8.7-5 8.7 5-8.7 5z"/><path id="XMLID_2_" class="st6" d="M8.9 52.2l-7.5-4.3 7.5-4.4 7.5 4.4-7.5 4.3z"/></g></g></svg>