<svg id="Layer_1" xmlns="http://www.w3.org/2000/svg" viewBox="0 0 57.84 43.45"><style>.st0{fill:#f1eff4}.st1{fill:#132e48}.st2{fill:#ff2f7a}.st3{fill:#e5e1eb}.st4{fill:#e82b6f}.st5{fill:#fdfdfd}.st6{fill:#ff4286}</style><g id="XMLID_218_"><g id="XMLID_291_"><path id="XMLID_73_" class="st0" d="M28.92 20.14l-8.72-5.03V5.04l8.72 5.03z"/><path id="XMLID_72_" class="st1" d="M28.24 18.97l-7.36-4.25v-8.5l7.36 4.24z"/><path id="XMLID_71_" class="st1" d="M28.24 18.97l-7.36-4.25v-8.5l7.36 4.24z"/><path id="XMLID_70_" class="st2" d="M28.24 18.97l-7.36-4.25v-8.5l7.36 4.24z"/><path id="XMLID_69_" class="st3" d="M37.64 15.1l-8.72 5.04V10.07l8.72-5.03z"/><path id="XMLID_68_" class="st4" d="M37 14.73l-7.43 4.29v-8.57l7.42-4.29z"/><path id="XMLID_67_" class="st5" d="M28.92 10.07L20.2 5.04 28.92 0l8.72 5.04z"/><path id="XMLID_66_" class="st6" d="M28.92 9.38l-7.53-4.34L28.92.69l7.53 4.35z"/></g><g id="XMLID_282_"><path id="XMLID_65_" class="st0" d="M39.02 25.97l-8.73-5.04V10.86l8.73 5.04z"/><path id="XMLID_64_" class="st1" d="M38.34 24.8l-7.37-4.26v-8.5l7.37 4.25z"/><path id="XMLID_63_" class="st1" d="M38.34 24.8l-7.37-4.26v-8.5l7.37 4.25z"/><path id="XMLID_62_" class="st2" d="M38.34 24.8l-7.37-4.26v-8.5l7.37 4.25z"/><path id="XMLID_61_" class="st3" d="M47.74 20.93l-8.72 5.04V15.9l8.72-5.04z"/><path id="XMLID_60_" class="st4" d="M47.09 20.56l-7.42 4.28v-8.57L47.09 12z"/><path id="XMLID_59_" class="st5" d="M39.02 15.9l-8.73-5.04 8.73-5.03 8.72 5.03z"/><path id="XMLID_58_" class="st6" d="M39.02 15.2l-7.53-4.34 7.53-4.34 7.52 4.34z"/></g><g id="XMLID_273_"><path id="XMLID_57_" class="st0" d="M49.12 31.8l-8.73-5.04V16.69l8.73 5.03z"/><path id="XMLID_56_" class="st1" d="M48.44 30.62l-7.37-4.25v-8.5l7.37 4.25z"/><path id="XMLID_55_" class="st1" d="M48.44 30.62l-7.37-4.25v-8.5l7.37 4.25z"/><path id="XMLID_54_" class="st2" d="M48.44 30.62l-7.37-4.25v-8.5l7.37 4.25z"/><path id="XMLID_53_" class="st3" d="M57.84 26.76L49.1 31.8V21.72l8.73-5.03z"/><path id="XMLID_52_" class="st4" d="M57.19 26.38l-7.43 4.29V22.1l7.43-4.29z"/><path id="XMLID_51_" class="st5" d="M49.12 21.72l-8.73-5.03 8.73-5.04 8.72 5.04z"/><path id="XMLID_50_" class="st6" d="M49.12 21.03l-7.53-4.34 7.52-4.35 7.53 4.35z"/></g><g id="XMLID_264_"><path id="XMLID_49_" class="st0" d="M18.82 25.97l-8.72-5.04V10.86l8.72 5.04z"/><path id="XMLID_48_" class="st1" d="M18.14 24.8l-7.36-4.26v-8.5l7.36 4.25z"/><path id="XMLID_47_" class="st1" d="M18.14 24.8l-7.36-4.26v-8.5l7.36 4.25z"/><path id="XMLID_46_" class="st2" d="M18.14 24.8l-7.36-4.26v-8.5l7.36 4.25z"/><path id="XMLID_45_" class="st3" d="M27.54 20.93l-8.72 5.04V15.9l8.72-5.04z"/><path id="XMLID_44_" class="st4" d="M26.9 20.56l-7.43 4.28v-8.57L26.89 12z"/><path id="XMLID_43_" class="st5" d="M18.82 15.9l-8.72-5.04 8.72-5.03 8.72 5.03z"/><path id="XMLID_42_" class="st6" d="M18.82 15.2l-7.53-4.34 7.53-4.34 7.53 4.34z"/></g><g id="XMLID_255_"><path id="XMLID_41_" class="st0" d="M28.92 31.8l-8.72-5.04V16.69l8.72 5.03z"/><path id="XMLID_40_" class="st1" d="M28.24 30.62l-7.36-4.25v-8.5l7.36 4.25z"/><path id="XMLID_39_" class="st1" d="M28.24 30.62l-7.36-4.25v-8.5l7.36 4.25z"/><path id="XMLID_38_" class="st2" d="M28.24 30.62l-7.36-4.25v-8.5l7.36 4.25z"/><path id="XMLID_37_" class="st3" d="M37.64 26.76l-8.72 5.04V21.72l8.72-5.03z"/><path id="XMLID_36_" class="st4" d="M37 26.38l-7.43 4.29V22.1l7.42-4.29z"/><path id="XMLID_35_" class="st5" d="M28.92 21.72L20.2 16.7l8.72-5.04 8.72 5.04z"/><path id="XMLID_34_" class="st6" d="M28.92 21.03l-7.53-4.34 7.53-4.35 7.53 4.35z"/></g><g id="XMLID_246_"><path id="XMLID_33_" class="st0" d="M39.02 37.62l-8.73-5.03V22.5l8.73 5.04z"/><path id="XMLID_32_" class="st1" d="M38.34 36.44l-7.37-4.25v-8.5l7.37 4.25z"/><path id="XMLID_31_" class="st1" d="M38.34 36.44l-7.37-4.25v-8.5l7.37 4.25z"/><path id="XMLID_30_" class="st2" d="M38.34 36.44l-7.37-4.25v-8.5l7.37 4.25z"/><path id="XMLID_29_" class="st3" d="M47.74 32.59l-8.72 5.03V27.55l8.72-5.04z"/><path id="XMLID_28_" class="st4" d="M47.09 32.21l-7.42 4.29v-8.58l7.42-4.28z"/><path id="XMLID_27_" class="st5" d="M39.02 27.55l-8.73-5.04 8.73-5.03 8.72 5.03z"/><path id="XMLID_26_" class="st6" d="M39.02 26.86l-7.53-4.35 7.53-4.34 7.52 4.34z"/></g><g id="XMLID_237_"><path id="XMLID_25_" class="st0" d="M8.72 31.8L0 26.76V16.69l8.72 5.03z"/><path id="XMLID_24_" class="st2" d="M8.04 30.62L.68 26.37v-8.5l7.36 4.25z"/><path id="XMLID_23_" class="st1" d="M8.04 30.62L.68 26.37v-8.5l7.36 4.25z"/><path id="XMLID_22_" class="st2" d="M8.04 30.62L.68 26.37v-8.5l7.36 4.25z"/><path id="XMLID_21_" class="st3" d="M17.44 26.76L8.72 31.8V21.72l8.72-5.03z"/><path id="XMLID_20_" class="st4" d="M16.8 26.38l-7.43 4.29V22.1l7.43-4.29z"/><path id="XMLID_19_" class="st5" d="M8.72 21.72L0 16.7l8.72-5.04 8.72 5.04z"/><path id="XMLID_18_" class="st6" d="M8.72 21.03L1.2 16.7l7.53-4.35 7.53 4.35z"/></g><g id="XMLID_228_"><path id="XMLID_17_" class="st0" d="M18.82 37.62l-8.72-5.03V22.5l8.72 5.04z"/><path id="XMLID_16_" class="st2" d="M18.14 36.44l-7.36-4.25v-8.5l7.36 4.25z"/><path id="XMLID_15_" class="st1" d="M18.14 36.44l-7.36-4.25v-8.5l7.36 4.25z"/><path id="XMLID_14_" class="st2" d="M18.14 36.44l-7.36-4.25v-8.5l7.36 4.25z"/><path id="XMLID_13_" class="st3" d="M27.54 32.59l-8.72 5.03V27.55l8.72-5.04z"/><path id="XMLID_12_" class="st4" d="M26.9 32.21l-7.43 4.29v-8.58l7.42-4.28z"/><path id="XMLID_11_" class="st5" d="M18.82 27.55L10.1 22.5l8.72-5.03 8.72 5.03z"/><path id="XMLID_10_" class="st6" d="M18.82 26.86l-7.53-4.35 7.53-4.34 7.53 4.34z"/></g><g id="XMLID_219_"><path id="XMLID_9_" class="st0" d="M28.92 43.45L20.2 38.4V28.34l8.72 5.04z"/><path id="XMLID_8_" class="st1" d="M28.24 42.27l-7.36-4.25v-8.5l7.36 4.25z"/><path id="XMLID_7_" class="st1" d="M28.24 42.27l-7.36-4.25v-8.5l7.36 4.25z"/><path id="XMLID_6_" class="st2" d="M28.24 42.27l-7.36-4.25v-8.5l7.36 4.25z"/><path id="XMLID_5_" class="st3" d="M37.64 38.41l-8.72 5.04V33.37l8.72-5.03z"/><path id="XMLID_4_" class="st4" d="M37 38.04l-7.43 4.28v-8.57l7.42-4.29z"/><path id="XMLID_3_" class="st5" d="M28.92 33.38l-8.72-5.04 8.72-5.04 8.72 5.04z"/><path id="XMLID_2_" class="st6" d="M28.92 32.69l-7.53-4.35 7.53-4.35 7.53 4.35z"/></g></g></svg>