<svg width="842" height="478" viewBox="0 0 842 478" xmlns="http://www.w3.org/2000/svg"><g fill="none" fill-rule="evenodd"><path d="M759.5 436.9a36 36 0 0 1-36 36h-605a36 36 0 0 1-36-36v-401a36 36 0 0 1 36-35.9h605a36 36 0 0 1 36 36v400.9z" fill="#1E0E5E"/><path d="M0 434.6v8.7c0 19 20 34.5 44.8 34.5h752.4c24.7 0 44.8-15.5 44.8-34.5v-8.7H0z" fill="#D1CCE5"/><path fill="#E2E4E8" fill-rule="nonzero" d="M108.6 29.4h620.7v366.9H108.6z"/><path d="M838 457.4H4c7.2 11.5 22.6 19.5 40.4 19.6H798c7.5-.1 14.5-1.6 20.6-4.2h.2l.2-.1h.1l.2-.1.1-.1a5.4 5.4 0 0 0 .2 0c7.9-3.5 14.3-8.8 18.2-15.1" fill="#7D73A2"/></g></svg>