<svg width="594" height="351" viewBox="0 0 594 351" xmlns="http://www.w3.org/2000/svg"><g fill="none" fill-rule="evenodd"><path fill-opacity=".3" fill="#110046" d="M0 351h593.4V17.5H0z"/><path fill="#00D2A0" d="M0 17.5h593.4V0H0z"/><path d="M44.7 8.8c0 2.8-2.1 5-4.8 5a4.9 4.9 0 0 1-4.8-5C35.1 6.1 37.3 4 40 4c2.7 0 4.8 2.2 4.8 5M30.6 8.8c0 2.8-2 5-4.7 5a4.9 4.9 0 0 1-4.8-5C21 6.1 23.2 4 25.9 4c2.6 0 4.7 2.2 4.7 5M11.8 13.8a4.9 4.9 0 0 1-4.8-5C7 6.1 9.2 4 11.8 4c2.7 0 4.8 2.2 4.8 5 0 2.7-2.1 4.9-4.8 4.9z" fill="#E7E5E4"/><g><path fill="#FFF" d="M32.7 68.6h52.8v-3.3H32.7zM32.7 76.5h29v-3.3h-29zM32.7 85h46.8v-3.2H32.7zM54.5 102.2h27V99h-27z"/><path fill="#00D2A0" d="M73.6 110.1H100v-3.3H73.6z"/><path fill="#FFF" d="M71 76.5h48.8v-3.3H71zM127.7 76.5h23.8v-3.3h-23.8zM160 76.5h31v-3.3h-31zM87.5 85h27v-3.2h-27zM81 90.4H53.9v3.3h51.5v-3.3zM90.8 102.2h27V99h-27zM113.2 93.7H143v-3.3h-29.7zM148.9 93.7h15.8v-3.3h-15.8zM171.3 93.7H191v-3.3h-19.8zM122.4 102.2h35V99h-35zM161.4 102.2h11.2V99h-11.2zM107.3 110.1H127v-3.3h-19.8zM54.5 128h27v-3.4h-27zM54.5 136.5h27v-3.3h-27zM90.1 136.5H114v-3.3H90zM117.5 124.6H90v3.3H137v-3.3zM140.3 128h11.9v-3.4h-12zM158.8 128h15.8v-3.4h-15.8zM139 136.5h27v-3.3h-27zM54.5 145h27v-3.2h-27zM54.5 153.7h27v-3.3h-27zM90.1 145H106v-3.2H90.1zM90.8 153.7h48.8v-3.3H90.8zM143.7 141.8H114v3.3h51.5v-3.3zM171.3 145H191v-3.2h-19.8zM145.5 153.7h27.1v-3.3h-27zM119.1 136.5h12v-3.3h-12zM32.7 168.8h29v-3.3h-29zM32.7 177.4h46.8v-3.3H32.7zM54.5 186h27v-3.3h-27zM54.5 194.5h27v-3.3h-27zM110.7 165.5H71.6v3.3h47.5v-3.3zM128.4 168.8h42.9v-3.3h-43zM87.5 177.4h27v-3.3h-27zM90.1 194.5h21.1v-3.3h-21zM132.1 182.7H90.8v3.3H151.5v-3.3zM117.2 194.5h40.2v-3.3h-40.2zM161.4 194.5h11.2v-3.3h-11.2zM107.3 203.1H127v-3.3h-19.8z"/><path fill="#FFF" d="M99.3 199.8H73v3.3h94.4v-3.3zM172.6 203.1h11.2v-3.3h-11.2zM54.5 220.3h27V217h-27zM54.5 228.2h27v-3.3h-27zM90.8 220.3H135V217H90.8zM90.1 228.2H114v-3.3H90zM140.3 220.3h11.9V217h-12zM158.8 220.3h15.8V217h-15.8zM139 228.2h27v-3.3h-27zM119.1 228.2h12v-3.3h-12zM32.7 241.4h29V238h-29zM32.7 250h46.8v-3.4H32.7zM54.5 257.8h27v-3.3h-27zM54.5 266.4h27v-3.3h-27zM73.6 275H100v-3.3H73.6z"/><path fill="#FEBFFA" d="M71.6 241.4h27V238h-27z"/><path fill="#FFF" d="M134.7 238h-28.8v3.4h86.5V238zM87.5 250h27v-3.4h-27zM90.1 266.4h21.1v-3.3h-21zM131.5 254.5H90.8v3.3h60.7v-3.3zM157.4 257.8h13.9v-3.3h-13.9zM177.9 257.8H191v-3.3h-13.2zM117.2 266.4h40.2v-3.3h-40.2zM161.4 266.4h11.2v-3.3h-11.2zM107.3 275H127v-3.3h-19.8zM54.5 301.4h27V298h-27zM81 289.5H53.9v3.3h80.5v-3.3zM90.1 301.4H114V298H90zM140.3 292.8h11.9v-3.3h-12zM158.8 292.8h15.8v-3.3h-15.8zM139 301.4h27V298h-27zM119.1 301.4h12V298h-12zM222.1 68.6H275v-3.3h-52.8zM220.8 76.5h29v-3.3h-29zM220.8 85h46.9v-3.2h-47zM242.6 102.2h27V99h-27zM261.7 110.1h26.4v-3.3h-26.4zM259 76.5h49v-3.3h-49zM315.2 76.5h23.7v-3.3h-23.7zM348.2 76.5h31v-3.3h-31zM276.2 85h27.1v-3.2h-27zM269.8 90.4h-27.2v3.3H294v-3.3zM278.9 102.2h27V99h-27zM300.7 93.7h29.7v-3.3h-29.7zM337.6 93.7h15.9v-3.3h-15.9zM359.4 93.7h19.8v-3.3h-19.8zM311.2 102.2h35V99h-35zM350.2 102.2h11.2V99h-11.2zM295.4 110.1h19.8v-3.3h-19.8zM242.6 128h27v-3.4h-27zM242.6 136.5h27v-3.3h-27zM278.9 136.5h23.7v-3.3H279zM305 124.6h-27.4v3.3h46.8v-3.3zM329.7 128h11.9v-3.4h-11.9zM346.2 128H362v-3.4h-15.8zM326.4 136.5h27v-3.3h-27zM242.6 145h27v-3.2h-27zM242.6 153.7h27v-3.3h-27zM278.2 145h15.9v-3.2h-15.9zM277.6 153.7h48.8v-3.3h-48.8zM332.5 141.8h-29.9v3.3h51.5v-3.3zM359.4 145h19.8v-3.2h-19.8zM333.7 153.7h27v-3.3h-27zM308.6 136.5h11.9v-3.3h-12z"/><path fill="#FEBFFA" d="M220.8 168.8h29v-3.3h-29z"/><path fill="#FFF" d="M220.8 177.4h46.9v-3.3h-47zM242.6 186h27v-3.3h-27zM242.6 194.5h27v-3.3h-27zM298.1 165.5H259v3.3h47.6v-3.3zM317.2 168.8H360v-3.3h-43zM276.2 177.4h27.1v-3.3h-27zM278.9 194.5H300v-3.3h-21.1zM319 182.7h-41.4v3.3H338.3v-3.3zM305.3 194.5h40.2v-3.3h-40.2zM350.2 194.5h11.2v-3.3h-11.2zM295.4 203.1h19.8v-3.3h-19.8z"/><path fill="#FFF" d="M288.1 199.8h-26.4v3.3h94.4v-3.3zM360.7 203.1H372v-3.3h-11.2zM242.6 220.3h27V217h-27zM242.6 228.2h27v-3.3h-27z"/><path fill="#00D2A0" d="M278.2 220.3h44.2V217h-44.2z"/><path fill="#FFF" d="M278.9 228.2h23.7v-3.3H279zM329.7 220.3h11.9V217h-11.9zM346.2 220.3H362V217h-15.8zM326.4 228.2h27v-3.3h-27zM308.6 228.2h11.9v-3.3h-12zM220.8 241.4h29V238h-29zM220.8 250h46.9v-3.4h-47zM242.6 257.8h27v-3.3h-27zM242.6 266.4h27v-3.3h-27zM261.7 275h26.4v-3.3h-26.4zM259 241.4h27.1V238h-27zM322.8 238h-28.7v3.4h86.4V238zM276.2 250h27.1v-3.4h-27zM278.9 266.4H300v-3.3h-21.1zM318.3 254.5h-40.7v3.3h60.7v-3.3zM345.5 257.8h13.9v-3.3h-13.9zM366 257.8h13.2v-3.3H366zM305.3 266.4h40.2v-3.3h-40.2zM350.2 266.4h11.2v-3.3h-11.2zM295.4 275h19.8v-3.3h-19.8zM242.6 301.4h27V298h-27zM269.9 289.5H242.6v3.3H323v-3.3zM278.9 301.4h23.7V298H279zM329.7 292.8h11.9v-3.3h-11.9zM346.2 292.8H362v-3.3h-15.8zM326.4 301.4h27V298h-27zM308.6 301.4h11.9V298h-12zM407 68.6h52.7v-3.3H407zM406.3 76.5h29v-3.3h-29zM406.3 85H453v-3.2h-46.8zM427.4 102.2h27V99h-27zM445.9 110.1h26.4v-3.3h-26.4zM445.2 76.5h48.9v-3.3h-48.9zM500.7 76.5h23.7v-3.3h-23.7zM533.7 76.5h31v-3.3h-31zM460.4 85h27v-3.2h-27zM455.3 90.4H428v3.3h51.5v-3.3zM462.4 102.2h27V99h-27zM486.8 93.7h29.7v-3.3h-29.7zM521.8 93.7h15.8v-3.3h-15.8zM544.9 93.7h19.8v-3.3h-19.8zM496 102.2h35V99h-35zM534.3 102.2h11.2V99h-11.2zM480.2 110.1H500v-3.3h-19.8z"/><path fill="#00D2A0" d="M427.4 128h27v-3.4h-27z"/><path fill="#FFF" d="M427.4 136.5h27v-3.3h-27zM463 136.5h23.8v-3.3H463zM489.7 124.6h-27.3v3.3h46.8v-3.3zM513.9 128h11.8v-3.4H514zM530.4 128h15.8v-3.4h-15.8zM510.6 136.5h27v-3.3h-27zM427.4 145h27v-3.2h-27zM427.4 153.7h27v-3.3h-27zM462.4 145h15.8v-3.2h-15.8zM463.7 153.7h48.8v-3.3h-48.8zM516.6 141.8H486.8v3.3h51.5v-3.3zM544.9 145h19.8v-3.2h-19.8zM518.5 153.7h27v-3.3h-27zM492.7 136.5h12v-3.3h-12zM406.3 168.8h29v-3.3h-29zM406.3 177.4H453v-3.3h-46.8zM427.4 186h27v-3.3h-27zM427.4 194.5h27v-3.3h-27zM484.2 165.5h-39v3.3h47.5v-3.3zM501.3 168.8h43v-3.3h-43zM460.4 177.4h27v-3.3h-27zM463 194.5h21.2v-3.3H463zM504.4 182.7H463v3.3h60.8v-3.3z"/><path fill="#FEBFFA" d="M490 194.5h40.4v-3.3H490z"/><path fill="#FFF" d="M534.3 194.5h11.2v-3.3h-11.2zM480.2 203.1H500v-3.3h-19.8z"/><path fill="#FFF" d="M472.3 199.8h-26.4v3.3h94.3v-3.3zM545.5 203.1h11.3v-3.3h-11.3zM427.4 220.3h27V217h-27zM427.4 228.2h27v-3.3h-27zM462.4 220.3h44.2V217h-44.2zM463 228.2h23.8v-3.3H463zM513.9 220.3h11.8V217H514zM530.4 220.3h15.8V217h-15.8zM510.6 228.2h27v-3.3h-27zM492.7 228.2h12v-3.3h-12zM406.3 241.4h29V238h-29zM406.3 250H453v-3.4h-46.8zM427.4 257.8h27v-3.3h-27zM427.4 266.4h27v-3.3h-27z"/><path fill="#FEBFFA" d="M445.9 275h26.4v-3.3h-26.4z"/><path fill="#FFF" d="M445.2 241.4h27V238h-27zM507 238h-28.8v3.4h86.5V238zM460.4 250h27v-3.4h-27zM463 266.4h21.2v-3.3H463zM503.8 254.5H463v3.3h60.8v-3.3zM530.4 257.8h13.8v-3.3h-13.8zM551.5 257.8h13.2v-3.3h-13.2zM490 266.4h40.4v-3.3H490zM534.3 266.4h11.2v-3.3h-11.2zM480.2 275H500v-3.3h-19.8zM427.4 301.4h27V298h-27zM455.3 289.5H428v3.3h80.6v-3.3zM463 301.4h23.8V298H463zM513.9 292.8h11.8v-3.3H514zM530.4 292.8h15.8v-3.3h-15.8zM510.6 301.4h27V298h-27zM492.7 301.4h12V298h-12z"/></g></g></svg>