<?xml version="1.0" standalone="no"?>
<!DOCTYPE svg PUBLIC "-//W3C//DTD SVG 20010904//EN"
 "http://www.w3.org/TR/2001/REC-SVG-20010904/DTD/svg10.dtd">
<svg version="1.0" xmlns="http://www.w3.org/2000/svg"
 width="700.000000pt" height="700.000000pt" viewBox="0 0 700.000000 700.000000"
 preserveAspectRatio="xMidYMid meet">
<metadata>
Created by potrace 1.11, written by Peter Selinger 2001-2013
</metadata>
<g transform="translate(0.000000,700.000000) scale(0.100000,-0.100000)"
fill="#000000" stroke="none">
<path d="M3425 6959 c-38 -23 -88 -51 -110 -64 -22 -12 -157 -90 -300 -172
-143 -83 -276 -159 -295 -169 -19 -11 -36 -22 -38 -26 -2 -5 -10 -8 -17 -8 -7
0 -26 -11 -42 -24 -28 -23 -29 -29 -28 -100 0 -42 -2 -76 -5 -76 -3 1 -36 18
-73 39 l-69 39 -116 -68 c-384 -221 -721 -415 -744 -427 -38 -19 -38 -21 -40
-112 -1 -45 -3 -81 -6 -81 -3 0 -33 16 -68 35 -34 19 -68 35 -74 35 -7 0 -51
-23 -99 -51 -47 -28 -95 -55 -106 -61 -11 -7 -58 -34 -105 -61 -47 -27 -105
-61 -129 -75 -25 -14 -67 -38 -93 -53 -27 -16 -52 -29 -55 -29 -4 0 -14 -6
-22 -14 -9 -7 -47 -30 -86 -51 -38 -21 -81 -45 -95 -55 -14 -9 -44 -25 -67
-36 l-42 -19 -1 -522 0 -523 89 -52 89 -52 -57 -33 c-31 -18 -63 -38 -71 -43
-8 -6 -23 -13 -33 -16 -16 -6 -17 -38 -15 -532 l3 -526 73 -42 c41 -23 78 -46
83 -51 5 -5 -27 -29 -76 -58 l-85 -50 3 -523 2 -524 40 -23 c22 -12 166 -95
320 -185 154 -89 297 -172 318 -184 21 -11 46 -26 55 -31 70 -42 159 -90 167
-90 6 -1 26 9 45 21 19 11 50 29 68 38 l32 17 -2 -80 c-1 -44 0 -82 3 -84 2
-3 78 -47 169 -100 91 -52 216 -124 279 -161 62 -36 115 -66 117 -66 2 0 44
-25 95 -55 50 -30 95 -55 99 -55 5 0 10 -3 12 -7 2 -5 32 -23 68 -42 l66 -34
63 36 c34 21 65 37 69 37 4 0 7 -34 7 -76 l-1 -76 36 -23 c19 -12 109 -65 200
-117 91 -53 264 -153 385 -223 121 -70 235 -136 253 -146 l33 -19 122 71 c67
40 137 80 155 91 80 45 176 100 291 166 68 40 126 72 129 72 3 0 13 6 21 14 9
7 43 28 76 46 119 66 111 55 110 147 l-1 81 51 -30 c89 -52 90 -53 128 -32 30
16 361 207 407 235 86 51 173 99 181 99 5 0 9 4 9 9 0 5 6 11 13 13 8 2 68 35
135 73 l122 70 1 70 c1 39 1 76 0 83 -2 14 60 -14 111 -50 23 -16 31 -17 50
-7 13 7 155 88 317 181 162 93 308 177 325 187 17 9 50 29 73 44 24 15 45 27
47 27 3 0 32 16 65 35 l61 36 0 522 0 523 -84 49 c-48 28 -81 54 -76 59 5 4
41 27 82 50 l73 42 3 518 c2 473 1 521 -14 538 -10 10 -21 18 -25 18 -12 0
-129 71 -129 79 0 3 37 27 83 54 l83 47 0 519 c-1 286 -3 521 -6 524 -3 2 -18
11 -35 19 -16 8 -149 84 -295 168 -146 84 -278 161 -295 170 -16 9 -84 49
-151 87 l-121 70 -64 -38 c-35 -22 -67 -39 -71 -39 -5 0 -8 38 -8 85 l0 84
-72 41 c-40 23 -80 45 -88 51 -8 5 -179 103 -380 219 l-365 209 -45 -26 c-25
-15 -56 -33 -70 -40 l-25 -13 -3 83 c-2 73 -5 83 -25 93 -12 6 -125 71 -252
144 -126 73 -250 144 -275 158 -25 14 -114 65 -198 114 -84 48 -154 88 -155
88 -1 0 -33 -19 -72 -41z"/>
</g>
</svg>
